<?xml version="1.0" encoding="UTF-8" standalone="no"?>
<!-- Created with Inkscape (http://www.inkscape.org/) -->

<svg
   xmlns:dc="http://purl.org/dc/elements/1.1/"
   xmlns:cc="http://creativecommons.org/ns#"
   xmlns:rdf="http://www.w3.org/1999/02/22-rdf-syntax-ns#"
   xmlns:svg="http://www.w3.org/2000/svg"
   xmlns="http://www.w3.org/2000/svg"
   xmlns:sodipodi="http://sodipodi.sourceforge.net/DTD/sodipodi-0.dtd"
   xmlns:inkscape="http://www.inkscape.org/namespaces/inkscape"
   width="900"
   height="900"
   id="svg2"
   version="1.1"
   inkscape:version="0.92.4 (5da689c313, 2019-01-14)"
   sodipodi:docname="Logo_Vector_Cropped.svg"
   inkscape:export-filename="/Users/jonwinsley/Downloads/Logo inspiration/Glitch Assassin.png"
   inkscape:export-xdpi="90"
   inkscape:export-ydpi="90">
  <defs
     id="defs4">
    <clipPath
       clipPathUnits="userSpaceOnUse"
       id="clipPath3049">
      <rect
         style="fill:#0000ff;stroke:#00ffff;stroke-width:0.5"
         id="rect3051"
         width="1022.8571"
         height="1754.2858"
         x="245.71428"
         y="-453.35211"
         ry="3" />
    </clipPath>
    <clipPath
       clipPathUnits="userSpaceOnUse"
       id="clipPath914">
      <rect
         style="display:inline;fill:#ff0000;stroke:none;stroke-width:0.56378824"
         id="rect916"
         width="1400"
         height="445.00009"
         x="1.6666666"
         y="514.99994"
         ry="0.75389934" />
    </clipPath>
  </defs>
  <sodipodi:namedview
     id="base"
     pagecolor="#ffffff"
     bordercolor="#666666"
     borderopacity="1.0"
     inkscape:pageopacity="0.0"
     inkscape:pageshadow="2"
     inkscape:zoom="0.6"
     inkscape:cx="454.32872"
     inkscape:cy="644.15544"
     inkscape:document-units="px"
     inkscape:current-layer="layer1"
     showgrid="false"
     inkscape:window-width="1920"
     inkscape:window-height="1017"
     inkscape:window-x="1912"
     inkscape:window-y="-8"
     inkscape:window-maximized="1" />
  <metadata
     id="metadata7">
    <rdf:RDF>
      <cc:Work
         rdf:about="">
        <dc:format>image/svg+xml</dc:format>
        <dc:type
           rdf:resource="http://purl.org/dc/dcmitype/StillImage" />
        <dc:title></dc:title>
      </cc:Work>
    </rdf:RDF>
  </metadata>
  <g
     inkscape:groupmode="layer"
     id="layer1"
     inkscape:label="Background"
     style="display:inline"
     transform="translate(0,-500)" />
  <g
     inkscape:groupmode="layer"
     id="layer2"
     inkscape:label="Sketches"
     style="display:inline"
     transform="translate(0,-500)">
    <path
       style="fill:#ffffff;stroke:none"
       d="m 701.22852,768.70898 c -7.65189,-0.12749 -15.22598,1.17544 -22.52149,3.55079 6.28837,-0.50217 12.62016,-0.76172 19.01563,-0.76172 7.64444,0 15.38114,0.36676 23.23632,1.08593 -2.2053,-0.82844 -4.45135,-1.58146 -6.74804,-2.23632 -4.32736,-1.04138 -8.66745,-1.56678 -12.98242,-1.63868 z m -69.54883,36.74414 c -32.48475,37.00632 -49.91328,84.80595 -60.83008,132.29102 0.26026,4.12516 -4.16535,9.18957 -8.00391,5.47461 -17.84596,-43.47818 -34.75786,-87.50601 -52.09179,-131.28516 14.36409,81.12791 31.83497,187.28534 52.52929,263.11521 11.06653,48.7024 23.07852,100.2639 34.46875,150.4082 41.63696,-144.1477 73.445,-257.21417 66.97852,-300.61325 h -3.61719 C 646.43519,901.60342 632.399,852.80533 631.67969,805.45312 Z m 136.10547,2.34571 c -2.18171,43.79491 -16.44908,92.13834 -25.46289,117.04492 h -2.42383 c -3.19954,44.65905 25.23195,158.58005 60.71679,302.90625 12.22206,-56.7292 24.41839,-112.5405 33.19532,-156.4883 19.46308,-78.0792 34.73926,-171.82589 48.17773,-246.1699 -2.15804,5.32538 -4.35004,10.63998 -6.31836,16.01562 -12.38874,31.96784 -25.77974,63.62315 -37.71094,95.71289 -0.45793,4.43328 -6.67873,7.54687 -9.21093,2.99024 -9.36262,-35.64355 -21.6458,-70.67415 -40.45117,-102.62891 -5.97376,-10.08789 -12.76766,-20.15221 -20.51172,-29.38281 z"
       id="path3060"
       clip-path="url(#clipPath914)"
       inkscape:connector-curvature="0"
       transform="translate(-269.99999,451.18732)" />
    <path
       style="fill:#ffffff;stroke:none"
       d="m 496.77552,504.81622 c -18.92958,0.17384 -93.0718,6.81399 -101.5918,5.97657 -6.2631,-0.6156 -17.35943,-3.4307 -25.6582,-1.31641 -18.69724,4.76352 -32.67563,13.39357 -49.3418,30.26367 -22.36515,22.63881 -50.6582,80.92188 -50.6582,80.92188 0,0 -39.81515,13.06402 -54.60352,26.97266 -31.94641,30.04599 -52.45603,90.67101 -54.27734,124.74609 -2.96663,55.503 1.01882,102.05295 69.68945,170.36719 31.08558,30.92425 92.25628,67.18603 145.11328,81.20313 39.35842,10.4375 144.34177,10.7331 192.76367,-2.6308 51.2571,-14.1465 107.50125,-33.53527 140.78907,-75.00007 23.79888,-29.64502 33.28118,-71.7973 30.59178,-109.86914 -1.7733,-25.10219 -7.825,-73.19367 -31.90818,-104.60547 -17.45703,-22.76926 -34.6479,-43.53038 -59.8672,-61.84179 0,0 -17.50621,-80.71833 -52.63281,-115.13282 -19.1565,-18.76815 -59.24853,-47.54128 -95.39453,-50 -0.73539,-0.05 -1.7517,-0.0663 -3.01367,-0.0547 z M 243.75208,692.00763 c -12.0369,58.01048 18.91799,89.04267 23.81641,96.25977 28.81548,42.45541 122.84115,82.24584 192.87304,84.35351 80.54855,2.42417 134.96403,-15.15512 176.64453,-61.52734 18.3057,-20.36627 16.15894,-29.43061 16.51954,-64.14453 0,0 10.46433,21.20229 12.49023,32.68945 3.8462,21.80937 1.51167,59.13946 -1.05273,66.42774 -9.4585,26.88141 -44.44643,59.55814 -81.54493,74.18945 -90.89114,35.84671 -169.01216,18.09783 -196.49218,10.91602 -68.09594,-17.79665 -124.4998,-54.43458 -151.72461,-97.08399 -12.95768,-20.29903 -17.02272,-43.31671 -13.53321,-65.25586 4.9084,-30.85988 22.00391,-76.82422 22.00391,-76.82422 z"
       id="path3093"
       inkscape:connector-curvature="0" />
    <path
       style="fill:#ffffff;stroke:none;stroke-width:4;stroke-linecap:butt;stroke-linejoin:miter;stroke-opacity:1"
       d="m 591.67591,1068.2225 c -46.64899,80.4737 -130.71177,140.1624 -161.65625,146.7324 -35.56345,-8.5371 -115.46827,-66.0357 -163.96485,-146.6289 -17.48054,31.2571 -30.87181,54.9921 -50.74414,80.9121 6.1131,11.2982 13.44436,47.2099 21.9375,94.1856 l 58.68555,148.7402 c 26.81793,-122.4599 86.49267,-176.6163 133.74609,-176.3261 46.97514,0.2884 101.7296,53.8694 132.93555,174.1367 l 53.0332,-133.752 c 9.56089,-51.3643 18.25858,-90.6688 26.98438,-104.1582 -20.61454,-26.1835 -37.77012,-53.0353 -50.95703,-83.8418 z"
       id="path3053"
       inkscape:connector-curvature="0"
       sodipodi:nodetypes="ccccccscccc" />
  </g>
</svg>
